#!OML:ASF F:\VICON\USERDATA\INSTALL\rory3\rory3.ASF
:FULLY-SPECIFIED
:DEGREES
1193
root 2.42215 17.3985 0.169553 -4.20455 5.0825 2.88686
lowerback 3.96498 -4.66317 -8.66823
upperback -1.39362 -6.60464 3.10616
thorax -2.33327 -3.14154 8.44358
lowerneck -18.7698 -4.49976 -13.1458
upperneck 30.4172 -6.06548 11.448
head 14.3687 -2.66164 5.89659
rclavicle 8.56762e-014 -1.74931e-014
rhumerus 91.4432 -64.7862 -67.9881
rradius 71.6341
rwrist -13.011
rhand -47.5762 -2.8905
rfingers 7.12502
rthumb -20.2612 -31.8537
lclavicle 8.56762e-014 -1.74931e-014
lhumerus 67.9049 58.4792 36.8368
lradius 101.969
lwrist 22.2505
lhand -32.8132 12.6204
lfingers 7.12502
lthumb -6.0339 42.5144
rfemur -27.8736 -0.831448 23.1533
rtibia 36.2204
rfoot -9.02156 0.100027
rtoes 0.506815
lfemur 11.2733 2.54137 -28.5261
ltibia 18.0764
lfoot -19.0415 3.27078
ltoes -17.3446
1194
root 2.38089 17.4017 0.106644 -4.25792 4.23241 2.9591
lowerback 3.94645 -4.65497 -8.64701
upperback -1.41194 -6.59197 3.0836
thorax -2.34967 -3.1339 8.40666
lowerneck -18.5346 -4.54792 -12.9186
upperneck 30.3428 -6.13068 11.1041
head 14.2708 -2.71441 5.68879
rclavicle 7.03698e-014 2.38542e-014
rhumerus 92.6395 -64.7276 -69.4882
rradius 71.9661
rwrist -13.34
rhand -48.1814 -2.9326
rfingers 7.12502
rthumb -20.8427 -31.833
lclavicle 7.03698e-014 2.38542e-014
lhumerus 67.7698 58.3177 37
lradius 101.726
lwrist 22.1001
lhand -32.5395 12.6233
lfingers 7.12502
lthumb -5.76966 42.5248
rfemur -27.8883 -0.900403 22.8682
rtibia 37.0362
rfoot -10.2752 -1.21602
rtoes 2.41626
lfemur 11.1293 2.78018 -28.596
ltibia 18.0516
lfoot -19.1405 3.79346
ltoes -16.9864
1195
root 2.33756 17.4102 0.045287 -4.31249 3.41128 2.9674
lowerback 3.93051 -4.67307 -8.59897
upperback -1.44444 -6.61261 3.10816
thorax -2.37288 -3.14246 8.40648
lowerneck -18.3877 -4.56099 -12.8437
upperneck 30.4445 -6.162 10.9574
head 14.2792 -2.74612 5.61149
rclavicle 1.0635e-014 -1.19271e-014
rhumerus 93.7272 -64.5646 -70.8809
rradius 72.2862
rwrist -13.5069
rhand -48.8339 -3.14152
rfingers 7.12502
rthumb -21.4695 -31.9718
lclavicle 1.0635e-014 -1.19271e-014
lhumerus 67.4046 58.2216 36.9062
lradius 101.358
lwrist 22.0961
lhand -32.3873 12.7513
lfingers 7.12502
lthumb -5.62263 42.6567
rfemur -27.876 -0.929878 22.6003
rtibia 37.8455
rfoot -11.0833 -2.32082
rtoes 3.10983
lfemur 10.9408 3.02195 -28.5696
ltibia 18.0933
lfoot -19.1799 4.33568
ltoes -16.5628
1196
root 2.29211 17.4199 -0.0167704 -4.39242 2.6155 2.86394
lowerback 3.98535 -4.7024 -8.48171
upperback -1.48916 -6.64896 3.20566
thorax -2.44432 -3.15678 8.45366
lowerneck -18.2797 -4.56631 -12.982
upperneck 30.5631 -6.18268 11.0375
head 14.3202 -2.76874 5.67335
rclavicle 3.47873e-015 -3.97569e-015
rhumerus 94.6908 -64.3802 -72.041
rradius 72.5329
rwrist -13.7481
rhand -49.5719 -3.0021
rfingers 7.12502
rthumb -22.1782 -31.7499
lclavicle 3.47873e-015 -3.97569e-015
lhumerus 66.8244 58.1797 36.5753
lradius 100.891
lwrist 22.3299
lhand -32.603 12.828
lfingers 7.12502
lthumb -5.83098 42.7278
rfemur -27.7931 -0.879989 22.41
rtibia 38.6613
rfoot -11.6879 -3.35762
rtoes 3.27886
lfemur 10.727 3.31973 -28.3699
ltibia 18.1711
lfoot -19.1184 4.83339
ltoes -16.269
1197
root 2.2451 17.4261 -0.0818409 -4.34618 1.78814 2.77289
lowerback 3.88752 -4.71603 -8.38604
upperback -1.484 -6.65173 3.30908
thorax -2.38127 -3.1635 8.4993
lowerneck -18.2956 -4.58663 -12.9612
upperneck 30.5543 -6.20595 10.9863
head 14.3207 -2.78435 5.64224
rclavicle -1.19271e-014 -1.11319e-014
rhumerus 95.7206 -64.2845 -73.1785
rradius 72.7704
rwrist -13.9395
rhand -50.2261 -2.95397
rfingers 7.12502
rthumb -22.8061 -31.6257
lclavicle -1.19271e-014 -1.11319e-014
lhumerus 66.48 58.205 36.5104
lradius 100.313
lwrist 22.4365
lhand -33.0228 12.6408
lfingers 7.12502
lthumb -6.23625 42.529
rfemur -27.8448 -0.694827 22.1615
rtibia 39.4739
rfoot -12.2817 -4.15923
rtoes 3.44614
lfemur 10.3026 3.53377 -28.2182
ltibia 18.3503
lfoot -19.1274 5.43153
ltoes -16.4693
1198
root 2.1969 17.4292 -0.149397 -4.26918 0.827166 2.68419
lowerback 3.70545 -4.64517 -8.22789
upperback -1.41366 -6.53185 3.34544
thorax -2.24202 -3.11633 8.42366
lowerneck -18.4171 -4.67216 -12.7978
upperneck 30.5365 -6.34501 10.8884
head 14.352 -2.83583 5.54396
rclavicle 5.89397e-014 5.56597e-015
rhumerus 96.6015 -64.4603 -74.1573
rradius 72.9561
rwrist -14.1078
rhand -50.8994 -3.06751
rfingers 7.12502
rthumb -23.4521 -31.6582
lclavicle 5.89397e-014 5.56597e-015
lhumerus 66.5408 58.2518 36.7791
lradius 99.6304
lwrist 22.352
lhand -32.8693 12.49
lfingers 7.12502
lthumb -6.08801 42.3825
rfemur -27.938 -0.44046 21.8889
rtibia 40.3081
rfoot -12.7285 -4.63593
rtoes 3.53527
lfemur 9.8215 3.80349 -28.0821
ltibia 18.5967
lfoot -19.1462 6.11999
ltoes -16.6638
1199
root 2.15027 17.436 -0.211462 -4.30787 -0.0469896 2.66011
lowerback 3.67438 -4.59394 -8.15102
upperback -1.36274 -6.45538 3.37013
thorax -2.1918 -3.0838 8.39934
lowerneck -18.5099 -4.74903 -12.7103
upperneck 30.581 -6.48209 10.8674
head 14.4105 -2.88755 5.49622
rclavicle -1.81888e-014 -1.82882e-014
rhumerus 97.2527 -64.5687 -74.9554
rradius 73.1672
rwrist -14.2793
rhand -51.4639 -3.0301
rfingers 7.12502
rthumb -23.9935 -31.5506
lclavicle -1.81888e-014 -1.82882e-014
lhumerus 66.4008 58.3088 36.8526
lradius 98.9145
lwrist 22.6274
lhand -32.6067 12.2657
lfingers 7.12502
lthumb -5.83447 42.1654
rfemur -27.8302 -0.311725 21.511
rtibia 41.1661
rfoot -13.0709 -4.88868
rtoes 3.28859
lfemur 9.48882 4.02067 -28.001
ltibia 18.8745
lfoot -19.2308 6.65806
ltoes -15.9508
1200
root 2.10372 17.4436 -0.269307 -4.40708 -0.780564 2.70426
lowerback 3.76241 -4.63072 -8.21112
upperback -1.37417 -6.51346 3.44011
thorax -2.22703 -3.10972 8.51856
lowerneck -18.4927 -4.74197 -12.7632
upperneck 30.6515 -6.48909 10.9241
head 14.444 -2.89355 5.53249
rclavicle -2.68359e-014 -2.38542e-014
rhumerus 97.7627 -64.3756 -75.5986
rradius 73.3431
rwrist -14.3793
rhand -51.95 -2.90792
rfingers 7.12502
rthumb -24.4596 -31.3663
lclavicle -2.68359e-014 -2.38542e-014
lhumerus 65.8286 58.382 36.4564
lradius 98.112
lwrist 23.1169
lhand -32.1197 12.4579
lfingers 7.12502
lthumb -5.36427 42.37
rfemur -27.6057 -0.221738 20.9985
rtibia 42.0521
rfoot -13.5386 -5.00861
rtoes 3.07729
lfemur 9.23865 4.15121 -27.9898
ltibia 19.1442
lfoot -19.2291 7.15101
ltoes -15.4246
1201
root 2.05674 17.4521 -0.331251 -4.42345 -1.51391 2.76663
lowerback 3.81297 -4.64248 -8.26324
upperback -1.42651 -6.53638 3.47458
thorax -2.29623 -3.11459 8.59395
lowerneck -18.3121 -4.73221 -12.7553
upperneck 30.5989 -6.5307 11
head 14.3892 -2.90715 5.55256
rclavicle 6.2319e-014 -7.95139e-015
rhumerus 97.9791 -64.325 -75.9061
rradius 73.4867
rwrist -14.54
rhand -52.1867 -2.85998
rfingers 7.12502
rthumb -24.6864 -31.2875
lclavicle 6.2319e-014 -7.95139e-015
lhumerus 65.319 58.3891 36.0084
lradius 97.2451
lwrist 23.6488
lhand -31.3439 13.0138
lfingers 7.12502
lthumb -4.61524 42.9435
rfemur -27.5001 -0.0864984 20.4198
rtibia 42.9502
rfoot -13.8512 -5.04455
rtoes 3.39252
lfemur 8.91324 4.06636 -28.0644
ltibia 19.374
lfoot -19.1541 7.80777
ltoes -15.0419
1202
root 2.00949 17.4612 -0.397495 -4.40232 -2.24727 2.83432
lowerback 3.87978 -4.61244 -8.27618
upperback -1.56754 -6.50487 3.4889
thorax -2.48563 -3.08247 8.63284
lowerneck -17.9813 -4.75378 -12.7983
upperneck 30.5894 -6.62203 11.0633
head 14.3303 -2.95523 5.56963
rclavicle -6.56983e-014 1.59028e-015
rhumerus 97.4192 -64.5037 -75.3756
rradius 73.601
rwrist -14.5832
rhand -52.3503 -2.42288
rfingers 7.12502
rthumb -24.8432 -30.8288
lclavicle -6.56983e-014 1.59028e-015
lhumerus 64.6755 58.1501 35.6247
lradius 96.4239
lwrist 23.9594
lhand -30.8788 13.3476
lfingers 7.12502
lthumb -4.16615 43.2866
rfemur -27.4676 -0.0635334 19.835
rtibia 43.8463
rfoot -13.9395 -5.06723
rtoes 3.00425
lfemur 8.52381 4.13827 -28.095
ltibia 19.609
lfoot -19.0056 8.40728
ltoes -15.3779
1203
root 1.9615 17.4693 -0.463533 -4.42919 -2.94546 2.90015
lowerback 3.94398 -4.60136 -8.29434
upperback -1.74743 -6.49903 3.53478
thorax -2.70517 -3.05975 8.7112
lowerneck -17.3334 -4.73728 -13.018
upperneck 30.4809 -6.64859 11.1782
head 14.1562 -2.99753 5.64678
rclavicle -1.42131e-014 2.70347e-014
rhumerus 96.3383 -64.6224 -74.2885
rradius 73.6816
rwrist -14.2725
rhand -52.0115 -2.31687
rfingers 7.12502
rthumb -24.5186 -30.7672
lclavicle -1.42131e-014 2.70347e-014
lhumerus 63.7887 57.8874 35.0883
lradius 95.5318
lwrist 24.0357
lhand -30.4278 14.0029
lfingers 7.12502
lthumb -3.7306 43.95
rfemur -27.36 -0.11239 19.2391
rtibia 44.7564
rfoot -14.0801 -5.08966
rtoes 2.55353
lfemur 8.17043 4.17371 -28.1143
ltibia 19.8611
lfoot -18.8657 9.01369
ltoes -15.7638
1204
root 1.91265 17.4754 -0.527461 -4.48172 -3.67336 2.90489
lowerback 3.93351 -4.57364 -8.25232
upperback -1.75561 -6.45814 3.57023
thorax -2.71668 -3.03899 8.72428
lowerneck -16.9703 -4.77345 -13.0968
upperneck 30.2485 -6.72557 11.2231
head 13.9913 -3.04319 5.65268
rclavicle -7.13637e-014 1.59028e-014
rhumerus 95.7649 -64.8575 -73.6464
rradius 73.7441
rwrist -14.1028
rhand -50.9252 -3.19499
rfingers 7.12502
rthumb -23.4769 -31.7825
lclavicle -7.13637e-014 1.59028e-014
lhumerus 63.2467 57.7682 34.7361
lradius 94.5889
lwrist 24.242
lhand -28.9843 16.1353
lfingers 7.12502
lthumb -2.33653 46.1022
rfemur -27.1222 -0.0116881 18.6771
rtibia 45.6793
rfoot -14.4527 -5.16682
rtoes 2.51565
lfemur 7.88227 4.06511 -28.0985
ltibia 20.0697
lfoot -18.7411 9.77017
ltoes -15.7013
1205
root 1.8642 17.4805 -0.586785 -4.50234 -4.39465 2.90958
lowerback 3.85344 -4.52463 -8.1664
upperback -1.70987 -6.38092 3.55919
thorax -2.64953 -3.00746 8.65118
lowerneck -16.8303 -4.85651 -12.9937
upperneck 30.0367 -6.88091 11.2035
head 13.8881 -3.10357 5.58614
rclavicle 5.66536e-014 2.06736e-014
rhumerus 95.4458 -65.2033 -73.2283
rradius 73.8189
rwrist -14.1332
rhand -52.0392 -1.80786
rfingers 7.12502
rthumb -24.5451 -30.2546
lclavicle 5.66536e-014 2.06736e-014
lhumerus 62.874 57.6228 34.5002
lradius 93.6616
lwrist 24.6478
lhand -27.669 18.3031
lfingers 7.12502
lthumb -1.06625 48.2802
rfemur -26.8393 0.122133 18.072
rtibia 46.5837
rfoot -14.8937 -5.2437
rtoes 3.13205
lfemur 7.59252 4.09187 -28.0502
ltibia 20.2478
lfoot -18.5601 10.4292
ltoes -15.745
1206
root 1.81593 17.488 -0.644111 -4.51154 -5.06578 3.03262
lowerback 3.80749 -4.50744 -8.21723
upperback -1.73438 -6.35789 3.55461
thorax -2.64952 -2.99407 8.67167
lowerneck -16.7162 -4.88122 -12.9543
upperneck 29.9582 -6.93985 11.1905
head 13.8359 -3.13027 5.55861
rclavicle -3.68746e-014 1.27222e-014
rhumerus 94.9598 -65.3695 -72.6841
rradius 73.9492
rwrist -14.2383
rhand -52.1238 -2.06737
rfingers 7.12502
rthumb -24.6262 -30.5031
lclavicle -3.68746e-014 1.27222e-014
lhumerus 62.4266 57.622 34.0382
lradius 92.5036
lwrist 24.8987
lhand -27.714 18.7416
lfingers 7.12502
lthumb -1.10968 48.7184
rfemur -26.5871 0.0982793 17.3445
rtibia 47.4393
rfoot -15.2944 -5.5814
rtoes 3.60941
lfemur 7.31941 4.23249 -28.0979
ltibia 20.3818
lfoot -18.3203 11.0142
ltoes -16.2243
